# xmcd
# 
# Track frame offsets:
#     150
#     22227
#     41636
#     63198
#     86447
#     112513
#     125209
#     145340
#     162078
#     189398
#     207947
# 
# Disc length: 3161
# 
# Revision: 12
# Processed by: cddbd v1.5.2PL0 Copyright (c) Steve Scherf et al.
# Submitted via: fre:ac v1.0.31
# 
DISCID=930c570b
DTITLE=Johnny Winter - Roots
DYEAR=2011
DGENRE=Blues
TTITLE0=T-Bone Shuffle (feat. Sonny Landreth)
TTITLE1=Further On Up The Road (feat. Jimmy Vivino)
TTITLE2=Done Somebody Wrong (feat. Warren Haynes)
TTITLE3=Got My Mojo Workin (feat. Frank Latorre)
TTITLE4=Last Night (feat. John Popper)
TTITLE5=Maybellene (feat. Vince Gill)
TTITLE6=Bright Lights, Big City (feat. Susan Tedeschi)
TTITLE7=Honky Tonk (feat. Edgar Winter)
TTITLE8=Dust My Broom (feat. Derek Trucks)
TTITLE9=Short Fat Fannie (feat. Paul Nelson)
TTITLE10=Come Back Baby (feat. John Medeski)
EXTD=YEAR: 2011
EXTT0=
EXTT1=
EXTT2=
EXTT3=
EXTT4=
EXTT5=
EXTT6=
EXTT7=
EXTT8=
EXTT9=
EXTT10=
PLAYORDER=
